<mxfile host="app.diagrams.net" modified="2024-01-18T07:28:33.002Z" agent="Mozilla/5.0 (Windows NT 10.0; Win64; x64) AppleWebKit/537.36 (KHTML, like Gecko) Chrome/112.0.0.0 Safari/537.36" etag="gn3GkpEUapTwtSp25-43" version="22.1.21" type="device">
  <diagram name="第 1 页" id="Vw6E7Yyoc9IYFf5rSxAF">
    <mxGraphModel dx="1434" dy="796" grid="1" gridSize="10" guides="1" tooltips="1" connect="1" arrows="1" fold="1" page="1" pageScale="1" pageWidth="827" pageHeight="1169" math="0" shadow="0">
      <root>
        <mxCell id="0" />
        <mxCell id="1" parent="0" />
        <mxCell id="Pmp6AsOR-EKS4KPtEe0_-40" style="edgeStyle=orthogonalEdgeStyle;rounded=0;orthogonalLoop=1;jettySize=auto;html=1;exitX=0.5;exitY=0;exitDx=0;exitDy=0;entryX=0;entryY=0.5;entryDx=0;entryDy=0;curved=1;" edge="1" parent="1" source="Pmp6AsOR-EKS4KPtEe0_-1" target="Pmp6AsOR-EKS4KPtEe0_-36">
          <mxGeometry relative="1" as="geometry" />
        </mxCell>
        <mxCell id="Pmp6AsOR-EKS4KPtEe0_-1" value="" style="rounded=1;whiteSpace=wrap;html=1;strokeWidth=2;fillWeight=4;hachureGap=8;hachureAngle=45;sketch=1;fillColor=#f5f5f5;fontColor=#333333;strokeColor=#666666;" vertex="1" parent="1">
          <mxGeometry x="70" y="280" width="740" height="360" as="geometry" />
        </mxCell>
        <mxCell id="Pmp6AsOR-EKS4KPtEe0_-24" style="edgeStyle=orthogonalEdgeStyle;rounded=0;orthogonalLoop=1;jettySize=auto;html=1;exitX=0;exitY=0.25;exitDx=0;exitDy=0;entryX=1;entryY=0.25;entryDx=0;entryDy=0;curved=1;" edge="1" parent="1" source="Pmp6AsOR-EKS4KPtEe0_-2" target="Pmp6AsOR-EKS4KPtEe0_-19">
          <mxGeometry relative="1" as="geometry" />
        </mxCell>
        <mxCell id="Pmp6AsOR-EKS4KPtEe0_-25" value="Select" style="edgeLabel;html=1;align=center;verticalAlign=bottom;resizable=0;points=[];fontFamily=Comic Sans MS;labelPosition=center;verticalLabelPosition=top;fontSize=13;" vertex="1" connectable="0" parent="Pmp6AsOR-EKS4KPtEe0_-24">
          <mxGeometry x="-0.0927" relative="1" as="geometry">
            <mxPoint x="-6" as="offset" />
          </mxGeometry>
        </mxCell>
        <mxCell id="Pmp6AsOR-EKS4KPtEe0_-26" style="edgeStyle=orthogonalEdgeStyle;rounded=0;orthogonalLoop=1;jettySize=auto;html=1;exitX=1;exitY=0.25;exitDx=0;exitDy=0;entryX=0;entryY=0.25;entryDx=0;entryDy=0;" edge="1" parent="1" source="Pmp6AsOR-EKS4KPtEe0_-2" target="Pmp6AsOR-EKS4KPtEe0_-8">
          <mxGeometry relative="1" as="geometry" />
        </mxCell>
        <mxCell id="Pmp6AsOR-EKS4KPtEe0_-27" value="Init" style="edgeLabel;html=1;align=center;verticalAlign=bottom;resizable=0;points=[];fontFamily=Comic Sans MS;labelPosition=center;verticalLabelPosition=top;fontSize=13;" vertex="1" connectable="0" parent="Pmp6AsOR-EKS4KPtEe0_-26">
          <mxGeometry x="0.1314" relative="1" as="geometry">
            <mxPoint x="-11" as="offset" />
          </mxGeometry>
        </mxCell>
        <mxCell id="Pmp6AsOR-EKS4KPtEe0_-2" value="" style="rounded=1;whiteSpace=wrap;html=1;strokeWidth=2;fillWeight=4;hachureGap=8;hachureAngle=45;sketch=1;fillColor=#f5f5f5;fontColor=#333333;strokeColor=#666666;" vertex="1" parent="1">
          <mxGeometry x="362.5" y="380" width="160" height="240" as="geometry" />
        </mxCell>
        <mxCell id="Pmp6AsOR-EKS4KPtEe0_-3" value="Modules&lt;br&gt;CoT" style="text;strokeColor=none;fillColor=none;html=1;fontSize=26;fontStyle=1;verticalAlign=middle;align=center;fontFamily=Comic Sans MS;" vertex="1" parent="1">
          <mxGeometry x="370" y="290" width="130" height="60" as="geometry" />
        </mxCell>
        <mxCell id="Pmp6AsOR-EKS4KPtEe0_-4" value="Agent" style="text;strokeColor=none;fillColor=none;html=1;fontSize=24;fontStyle=1;verticalAlign=middle;align=center;fontFamily=Comic Sans MS;" vertex="1" parent="1">
          <mxGeometry x="392.5" y="380" width="100" height="40" as="geometry" />
        </mxCell>
        <mxCell id="Pmp6AsOR-EKS4KPtEe0_-5" value="Base_Agent" style="rounded=1;whiteSpace=wrap;html=1;strokeWidth=2;fillWeight=4;hachureGap=8;hachureAngle=45;fillColor=#d5e8d4;sketch=1;strokeColor=#82b366;fontFamily=Comic Sans MS;fontStyle=0;fontSize=16;" vertex="1" parent="1">
          <mxGeometry x="392.5" y="440" width="100" height="50" as="geometry" />
        </mxCell>
        <mxCell id="Pmp6AsOR-EKS4KPtEe0_-6" value="EOIS_Agent" style="ellipse;whiteSpace=wrap;html=1;strokeWidth=2;fillWeight=2;hachureGap=8;fillColor=#dae8fc;fillStyle=zigzag;sketch=1;strokeColor=#6c8ebf;fontFamily=Comic Sans MS;fontSize=14;fontStyle=2" vertex="1" parent="1">
          <mxGeometry x="392.5" y="510" width="107.5" height="40" as="geometry" />
        </mxCell>
        <mxCell id="Pmp6AsOR-EKS4KPtEe0_-8" value="" style="rounded=1;whiteSpace=wrap;html=1;strokeWidth=2;fillWeight=4;hachureGap=8;hachureAngle=45;sketch=1;fillColor=#f5f5f5;fontColor=#333333;strokeColor=#666666;" vertex="1" parent="1">
          <mxGeometry x="610" y="380" width="150" height="240" as="geometry" />
        </mxCell>
        <mxCell id="Pmp6AsOR-EKS4KPtEe0_-7" value="Others_Agent" style="ellipse;whiteSpace=wrap;html=1;strokeWidth=2;fillWeight=2;hachureGap=8;fillColor=#dae8fc;fillStyle=zigzag;sketch=1;strokeColor=#6c8ebf;fontFamily=Comic Sans MS;fontSize=14;fontStyle=2" vertex="1" parent="1">
          <mxGeometry x="392.5" y="565" width="107.5" height="40" as="geometry" />
        </mxCell>
        <mxCell id="Pmp6AsOR-EKS4KPtEe0_-9" value="&lt;font style=&quot;font-size: 17px;&quot;&gt;LLM_Initializer&lt;/font&gt;" style="text;strokeColor=none;fillColor=none;html=1;fontSize=24;fontStyle=1;verticalAlign=middle;align=center;fontFamily=Comic Sans MS;" vertex="1" parent="1">
          <mxGeometry x="640" y="380" width="100" height="40" as="geometry" />
        </mxCell>
        <mxCell id="Pmp6AsOR-EKS4KPtEe0_-10" value="Spark_LLM" style="rounded=1;whiteSpace=wrap;html=1;strokeWidth=2;fillWeight=4;hachureGap=8;hachureAngle=45;fillColor=#ffe6cc;sketch=1;strokeColor=#d79b00;fontFamily=Comic Sans MS;fontStyle=0;fontSize=16;" vertex="1" parent="1">
          <mxGeometry x="640" y="430" width="100" height="50" as="geometry" />
        </mxCell>
        <mxCell id="Pmp6AsOR-EKS4KPtEe0_-11" value="Baichuan_LLM" style="rounded=1;whiteSpace=wrap;html=1;strokeWidth=2;fillWeight=4;hachureGap=8;hachureAngle=45;fillColor=#ffe6cc;sketch=1;strokeColor=#d79b00;fontFamily=Comic Sans MS;fontStyle=0;fontSize=16;" vertex="1" parent="1">
          <mxGeometry x="640" y="500" width="100" height="50" as="geometry" />
        </mxCell>
        <mxCell id="Pmp6AsOR-EKS4KPtEe0_-12" value="etc._LLM" style="rounded=1;whiteSpace=wrap;html=1;strokeWidth=2;fillWeight=4;hachureGap=8;hachureAngle=45;fillColor=#ffe6cc;sketch=1;strokeColor=#d79b00;fontFamily=Comic Sans MS;fontStyle=0;fontSize=16;" vertex="1" parent="1">
          <mxGeometry x="640" y="560" width="100" height="50" as="geometry" />
        </mxCell>
        <mxCell id="Pmp6AsOR-EKS4KPtEe0_-19" value="" style="rounded=1;whiteSpace=wrap;html=1;strokeWidth=2;fillWeight=4;hachureGap=8;hachureAngle=45;sketch=1;fillColor=#f5f5f5;fontColor=#333333;strokeColor=#666666;" vertex="1" parent="1">
          <mxGeometry x="100" y="380" width="160" height="240" as="geometry" />
        </mxCell>
        <mxCell id="Pmp6AsOR-EKS4KPtEe0_-20" value="Tool_kits" style="text;strokeColor=none;fillColor=none;html=1;fontSize=24;fontStyle=1;verticalAlign=middle;align=center;fontFamily=Comic Sans MS;" vertex="1" parent="1">
          <mxGeometry x="126.25" y="380" width="100" height="40" as="geometry" />
        </mxCell>
        <mxCell id="Pmp6AsOR-EKS4KPtEe0_-21" value="Tool_base" style="rounded=1;whiteSpace=wrap;html=1;strokeWidth=2;fillWeight=4;hachureGap=8;hachureAngle=45;fillColor=#d5e8d4;sketch=1;strokeColor=#82b366;fontFamily=Comic Sans MS;fontStyle=0;fontSize=16;" vertex="1" parent="1">
          <mxGeometry x="122.5" y="440" width="100" height="50" as="geometry" />
        </mxCell>
        <mxCell id="Pmp6AsOR-EKS4KPtEe0_-22" value="EnInfo_tool" style="ellipse;whiteSpace=wrap;html=1;strokeWidth=2;fillWeight=2;hachureGap=8;fillColor=#dae8fc;fillStyle=zigzag;sketch=1;strokeColor=#6c8ebf;fontFamily=Comic Sans MS;fontSize=14;fontStyle=2" vertex="1" parent="1">
          <mxGeometry x="122.5" y="510" width="107.5" height="40" as="geometry" />
        </mxCell>
        <mxCell id="Pmp6AsOR-EKS4KPtEe0_-23" value="Other_tool" style="ellipse;whiteSpace=wrap;html=1;strokeWidth=2;fillWeight=2;hachureGap=8;fillColor=#dae8fc;fillStyle=zigzag;sketch=1;strokeColor=#6c8ebf;fontFamily=Comic Sans MS;fontSize=14;fontStyle=2" vertex="1" parent="1">
          <mxGeometry x="122.5" y="565" width="107.5" height="40" as="geometry" />
        </mxCell>
        <mxCell id="Pmp6AsOR-EKS4KPtEe0_-29" value="" style="rounded=1;whiteSpace=wrap;html=1;strokeWidth=2;fillWeight=4;hachureGap=8;hachureAngle=45;fillColor=#e1d5e7;sketch=1;strokeColor=#9673a6;fontFamily=Comic Sans MS;fontStyle=1;fontSize=18;" vertex="1" parent="1">
          <mxGeometry x="80" y="20" width="160" height="160" as="geometry" />
        </mxCell>
        <mxCell id="Pmp6AsOR-EKS4KPtEe0_-31" value="Memory" style="text;strokeColor=none;fillColor=none;html=1;fontSize=24;fontStyle=1;verticalAlign=middle;align=center;fontFamily=Comic Sans MS;" vertex="1" parent="1">
          <mxGeometry x="110" y="30" width="100" height="40" as="geometry" />
        </mxCell>
        <mxCell id="Pmp6AsOR-EKS4KPtEe0_-32" value="Redis" style="rounded=1;whiteSpace=wrap;html=1;strokeWidth=2;fillWeight=4;hachureGap=8;hachureAngle=45;sketch=1;fontFamily=Comic Sans MS;fontStyle=0;fontSize=16;fillColor=#f8cecc;strokeColor=#b85450;" vertex="1" parent="1">
          <mxGeometry x="110" y="75" width="100" height="40" as="geometry" />
        </mxCell>
        <mxCell id="Pmp6AsOR-EKS4KPtEe0_-33" value="File_Cache" style="rounded=1;whiteSpace=wrap;html=1;strokeWidth=2;fillWeight=4;hachureGap=8;hachureAngle=45;sketch=1;fontFamily=Comic Sans MS;fontStyle=0;fontSize=16;fillColor=#f8cecc;strokeColor=#b85450;" vertex="1" parent="1">
          <mxGeometry x="110" y="130" width="100" height="40" as="geometry" />
        </mxCell>
        <mxCell id="Pmp6AsOR-EKS4KPtEe0_-34" style="edgeStyle=orthogonalEdgeStyle;rounded=0;orthogonalLoop=1;jettySize=auto;html=1;exitX=1;exitY=0.5;exitDx=0;exitDy=0;entryX=0.474;entryY=0;entryDx=0;entryDy=0;entryPerimeter=0;curved=1;" edge="1" parent="1" source="Pmp6AsOR-EKS4KPtEe0_-29" target="Pmp6AsOR-EKS4KPtEe0_-1">
          <mxGeometry relative="1" as="geometry" />
        </mxCell>
        <mxCell id="Pmp6AsOR-EKS4KPtEe0_-36" value="" style="rounded=1;whiteSpace=wrap;html=1;strokeWidth=2;fillWeight=4;hachureGap=8;hachureAngle=45;fillColor=#fff2cc;sketch=1;strokeColor=#d6b656;fontFamily=Comic Sans MS;fontStyle=1;fontSize=18;" vertex="1" parent="1">
          <mxGeometry x="650" y="30" width="160" height="120" as="geometry" />
        </mxCell>
        <mxCell id="Pmp6AsOR-EKS4KPtEe0_-37" value="Server" style="text;strokeColor=none;fillColor=none;html=1;fontSize=24;fontStyle=1;verticalAlign=middle;align=center;fontFamily=Comic Sans MS;" vertex="1" parent="1">
          <mxGeometry x="680" y="40" width="100" height="40" as="geometry" />
        </mxCell>
        <mxCell id="Pmp6AsOR-EKS4KPtEe0_-38" value="FastAPI" style="rounded=1;whiteSpace=wrap;html=1;strokeWidth=2;fillWeight=4;hachureGap=8;hachureAngle=45;sketch=1;fontFamily=Comic Sans MS;fontStyle=0;fontSize=16;fillColor=#d5e8d4;strokeColor=#82b366;" vertex="1" parent="1">
          <mxGeometry x="680" y="85" width="100" height="40" as="geometry" />
        </mxCell>
      </root>
    </mxGraphModel>
  </diagram>
</mxfile>
